HIERARCHY
ROOT ui
{
	 OFFSET 0 0 0
	 CHANNELS 3 XPosition YPosition Z Position
	 EndSite
	 {
	 OFFSET 0 -1 0
	 }
}
ROOT li
{
	 OFFSET 0 0 0
	 CHANNELS 3 XPosition YPosition Z Position
	 EndSite
	 {
	 OFFSET 0 -1 0
	 }
}
ROOT ul
{
	 OFFSET 0 0 0
	 CHANNELS 3 XPosition YPosition Z Position
	 EndSite
	 {
	 OFFSET 0 -1 0
	 }
}
ROOT ll
{
	 OFFSET 0 0 0
	 CHANNELS 3 XPosition YPosition Z Position
	 EndSite
	 {
	 OFFSET 0 -1 0
	 }
}
ROOT tt
{
	 OFFSET 0 0 0
	 CHANNELS 3 XPosition YPosition Z Position
	 EndSite
	 {
	 OFFSET 0 -1 0
	 }
}
ROOT tb
{
	 OFFSET 0 0 0
	 CHANNELS 3 XPosition YPosition Z Position
	 EndSite
	 {
	 OFFSET 0 -1 0
	 }
}
ROOT td
{
	 OFFSET 0 0 0
	 CHANNELS 3 XPosition YPosition Z Position
	 EndSite
	 {
	 OFFSET 0 -1 0
	 }
}
ROOT v
{
	 OFFSET 0 0 0
	 CHANNELS 3 XPosition YPosition Z Position
	 EndSite
	 {
	 OFFSET 0 -1 0
	 }
}
ROOT bn
{
	 OFFSET 0 0 0
	 CHANNELS 3 XPosition YPosition Z Position
	 EndSite
	 {
	 OFFSET 0 -1 0
	 }
}
MOTION
Frames: 10
Frame Time: 0.002
0.02891026496887207	-6.037539839744568E-4	0		0.49805709838867185	-2.5291279296875	0		-0.94751806640625	0.14255950927734376	0		-0.3641873474121094	-2.983307861328125	0		1.5568673095703125	-1.1511329345703125	0		2.711808349609375	0.23776457214355468	0		4.56457080078125	0.7316323852539063	0		6.00937451171875	0.5311150512695313	0		-0.16028782653808593	5.93594482421875	0		
-0.026104900360107423	-0.003944080114364624	0		0.5029503173828125	-2.545142578125	0		-0.881498291015625	0.14182008361816406	0		-0.308368408203125	-3.00692041015625	0		1.560790771484375	-1.162115966796875	0		2.708614013671875	0.21888438415527345	0		4.5614921875	0.7237874755859375	0		6.0023798828125	0.5303433837890625	0		-0.1593878173828125	5.9349619140625	0		
-0.03497677612304687	0.004211897850036621	0		0.47605926513671876	-2.542771240234375	0		-0.94043798828125	0.14452955627441405	0		-0.3604996032714844	-3.026278564453125	0		1.566575439453125	-1.1860987548828126	0		2.72614404296875	0.17478794860839844	0		4.5405048828125	0.723167236328125	0		6.01157666015625	0.54540771484375	0		-0.14236207580566407	5.9438193359375	0		
0.03600325012207031	-5.112640261650085E-4	0		0.5050875854492187	-2.5470078125	0		-0.8563475952148437	0.1496417694091797	0		-0.3087596740722656	-3.056789794921875	0		1.57150146484375	-1.1970426025390626	0		2.71730810546875	0.1870225067138672	0		4.5625888671875	0.729082275390625	0		6.01258544921875	0.5445882568359375	0		-0.1575509490966797	5.934072265625	0		
-0.01598275375366211	2.0030100643634796E-4	0		0.5020832214355468	-2.551844482421875	0		-0.9412318115234375	0.1597127685546875	0		-0.32973187255859376	-3.059435546875	0		1.562373291015625	-1.2107930908203124	0		2.68084130859375	0.14559892272949218	0		4.53433984375	0.7075966796875	0		6.01357568359375	0.5437958374023437	0		-0.158625732421875	5.93520166015625	0		
0.02503760528564453	0.003898761034011841	0		0.5209254150390625	-2.56688818359375	0		-0.8743627319335937	0.1501043243408203	0		-0.2739756164550781	-3.082909912109375	0		1.5522099609375	-1.2244931640625	0		2.714599365234375	0.12641606140136719	0		4.51121826171875	0.7000853271484375	0		6.01453466796875	0.5430326538085938	0		-0.19179727172851563	5.92973779296875	0		
-0.02704058265686035	0.0037009379863739015	0		0.4908515319824219	-2.56932958984375	0		-0.8843319702148438	0.15942025756835937	0		-0.30521359252929686	-3.10034765625	0		1.551949462890625	-1.242261962890625	0		2.722164794921875	0.09457038879394532	0		4.49105126953125	0.6925750732421875	0		6.007447265625	0.542391357421875	0		-0.2070565185546875	5.919119140625	0		
0.02681119728088379	0.00235721492767334	0		0.5242599487304688	-2.6114404296875	0		-0.8794329223632813	0.1626243896484375	0		-0.28965289306640624	-3.12926171875	0		1.5575533447265626	-1.266049072265625	0		2.70185107421875	0.07908590698242188	0		4.483822265625	0.684956298828125	0		6.0162978515625	0.5416024780273437	0		-0.1911224365234375	5.92920361328125	0		
-0.05240684127807617	0.0025782198905944824	0		0.49808248901367186	-2.6088173828125	0		-0.9486069946289063	0.16672853088378906	0		-0.2939202880859375	-3.13489013671875	0		1.560176513671875	-1.2807490234375	0		2.67821044921875	0.041685928344726564	0		4.46552978515625	0.6785045776367188	0		6.0221630859375	0.5488841552734375	0		-0.15631390380859375	5.93313330078125	0		
0.03130677032470703	0.00401814079284668	0		0.5565264282226563	-2.631093017578125	0		-0.8788811645507812	0.16932669067382813	0		-0.29146142578125	-3.1555322265625	0		1.5527603759765625	-1.290278564453125	0		2.70676904296875	0.029749292373657227	0		4.43083251953125	0.6442823486328125	0		6.02284814453125	0.5482639770507812	0		-0.1556295166015625	5.9325126953125	0		
